<svg width="73" height="79" viewBox="0 0 73 79" fill="none" xmlns="http://www.w3.org/2000/svg">
<path d="M69.3615 37.2554C65.5162 38.5429 57.9315 45.1414 56.3164 51.863C57.7123 52.244 59.2215 52.1621 60.5908 51.9016C55.6075 61.1546 47.4588 64.7686 43.3168 66.0608C41.7233 66.5598 43.0516 66.1284 43.0516 66.1284C42.4898 66.2707 41.8944 66.1452 41.4363 65.7908C40.9782 65.4364 40.7082 64.8915 40.7034 64.3105L40.6986 63.944L40.4045 28.4196H47.0778C47.7071 29.8035 49.0982 30.7679 50.7206 30.7679C52.9291 30.7679 54.7228 28.9742 54.7228 26.7609C54.7228 24.5525 52.9291 22.7588 50.7206 22.7588C49.098 22.7588 47.7094 23.7231 47.0778 25.107H40.378L40.3128 17.4982L40.3104 17.122C40.3056 16.4855 40.6237 15.8876 41.1565 15.5332C41.1565 15.5332 41.4844 15.4102 42.0027 14.9714C43.835 13.4092 44.9995 11.0899 44.9995 8.50052C44.9995 3.81406 41.1855 0 36.5011 0C31.8143 0 28.0003 3.81406 28.0003 8.50083C28.0003 11.0901 29.1647 13.4095 30.997 14.9717C31.5153 15.4106 31.8432 15.5335 31.8432 15.5335C32.376 15.8879 32.6943 16.4858 32.6893 17.1223L32.6869 17.4985L32.6242 25.1073H25.9219C25.2902 23.7234 23.8992 22.7591 22.2814 22.7591C20.0682 22.7591 18.2769 24.5528 18.2769 26.7612C18.2769 28.9745 20.0682 30.7682 22.2814 30.7682C23.9015 30.7682 25.2902 29.8038 25.9219 28.4199H32.5952L32.3011 63.9443L32.2987 64.3108C32.2939 64.8919 32.0214 65.4367 31.5633 65.7911C31.1052 66.1455 30.5097 66.2708 29.948 66.1287C29.948 66.1287 31.2763 66.5603 29.6827 66.0611C25.5408 64.7689 17.392 61.1549 12.4087 51.9019C13.7781 52.1624 15.2873 52.2443 16.6857 51.8633C15.068 45.1417 7.48572 38.5432 3.64033 37.2557C-0.202586 41.5929 -0.991043 50.4771 1.73338 56.8297C3.32464 56.2028 4.65545 54.9684 5.67042 53.7438C7.32186 57.8809 14.2459 72.0231 33.398 77.7803C34.3985 78.0816 35.5462 78.6386 36.5008 79.0001C37.4531 78.6385 38.6006 78.0816 39.6012 77.7803C58.7533 72.023 65.6774 57.8808 67.3311 53.7438C68.3438 54.9686 69.6746 56.2029 71.2657 56.8297C73.9904 50.4768 73.202 41.5927 69.3615 37.2554ZM7.59697 50.8842C7.78259 50.5466 7.87902 50.3394 7.87902 50.3394C7.87902 50.3394 7.98024 50.3924 8.15876 50.4791L7.59697 50.8842ZM36.5011 12.6668C34.2035 12.6668 32.3326 10.7985 32.3326 8.50083C32.3326 6.20088 34.2035 4.33482 36.5011 4.33482C38.7987 4.33482 40.6671 6.20088 40.6671 8.50083C40.6671 10.7983 38.7987 12.6668 36.5011 12.6668ZM64.8434 50.4791C65.0218 50.3923 65.1207 50.3394 65.1207 50.3394C65.1207 50.3394 65.2196 50.5467 65.4027 50.8842L64.8434 50.4791Z" fill="white"/>
</svg>
