<svg width="178" height="178" viewBox="0 0 178 178" fill="none" xmlns="http://www.w3.org/2000/svg">
<path d="M45.761 80.5449C61.7862 80.5449 77.1573 86.9007 88.5027 98.2183C99.8482 109.536 106.242 124.891 106.281 140.917" stroke="white" stroke-width="14" stroke-miterlimit="10"/>
<path d="M166.875 36.1191C166.875 26.3294 158.956 18.3933 149.186 18.3933C139.417 18.3933 131.498 26.3294 131.498 36.1191V57.3308C131.498 67.1205 139.417 75.0566 149.186 75.0566C158.956 75.0566 166.875 67.1205 166.875 57.3308V36.1191Z" stroke="white" stroke-width="14" stroke-miterlimit="10"/>
<path d="M131.423 28.9991C131.423 19.2094 123.504 11.2733 113.735 11.2733C103.965 11.2733 96.0459 19.2094 96.0459 28.9991V57.2566C96.0459 67.0464 103.965 74.9825 113.735 74.9825C123.504 74.9825 131.423 67.0464 131.423 57.2566V28.9991Z" stroke="white" stroke-width="14" stroke-miterlimit="10"/>
<path d="M85.7368 73.3508C88.8824 72.009 91.5683 69.7786 93.4653 66.9331C95.3623 64.0876 96.388 60.7506 96.4168 57.3308V28.9991C96.5735 26.5799 96.2323 24.1542 95.4143 21.8721C94.5963 19.5899 93.3188 17.4998 91.6609 15.731C90.003 13.9622 87.9999 12.5523 85.7754 11.5885C83.5509 10.6246 81.1524 10.1273 78.728 10.1273C76.3037 10.1273 73.9052 10.6246 71.6807 11.5885C69.4562 12.5523 67.4531 13.9622 65.7952 15.731C64.1372 17.4998 62.8598 19.5899 62.0418 21.8721C61.2237 24.1542 60.8825 26.5799 61.0393 28.9991V45.9091" stroke="white" stroke-width="14" stroke-miterlimit="10"/>
<path d="M25.291 57.7758V28.9991C25.1343 26.5799 25.4754 24.1542 26.2935 21.8721C27.1115 19.5899 28.3889 17.4998 30.0469 15.731C31.7048 13.9622 33.7079 12.5523 35.9324 11.5885C38.1569 10.6246 40.5554 10.1273 42.9797 10.1273C45.4041 10.1273 47.8026 10.6246 50.0271 11.5885C52.2516 12.5523 54.2547 13.9622 55.9126 15.731C57.5705 17.4998 58.848 19.5899 59.666 21.8721C60.484 24.1542 60.8252 26.5799 60.6685 28.9991V45.9091" stroke="white" stroke-width="14" stroke-miterlimit="10"/>
<path d="M46.5026 174.143V159.978L40.9401 155.231C21.8793 136.096 11.2735 117.258 11.2735 90.1867C11.2639 78.4717 15.8743 67.2255 24.1043 58.8883C32.4174 50.604 43.6665 45.9391 55.4026 45.9092H71.7193C76.3024 45.9092 80.6979 47.7298 83.9387 50.9706C87.1795 54.2114 89.0001 58.6069 89.0001 63.19C89.0099 65.4656 88.5701 67.7207 87.706 69.8259C86.842 71.9311 85.5706 73.8448 83.965 75.4574C82.3593 77.0699 80.451 78.3495 78.3496 79.2225C76.2481 80.0956 73.9949 80.545 71.7193 80.545H45.761" stroke="white" stroke-width="14" stroke-miterlimit="10"/>
<path d="M131.498 174.143V159.978L137.06 155.231C156.121 136.096 166.727 117.258 166.727 90.1867V54.5867" stroke="white" stroke-width="14" stroke-miterlimit="10"/>
</svg>
