<svg width="201" height="201" viewBox="0 0 201 201" fill="none" xmlns="http://www.w3.org/2000/svg">
<path d="M108.875 125.625V58.625M108.875 125.625L154.97 151.965C160.553 155.155 167.5 151.124 167.5 144.693V117.25V67V39.5567C167.5 33.1262 160.553 29.0947 154.97 32.2852L108.875 58.625M108.875 125.625H83.75M108.875 58.625H58.625C40.1235 58.625 25.125 73.6235 25.125 92.125C25.125 110.626 40.1235 125.625 58.625 125.625M83.75 125.625V163.313C83.75 170.25 78.1256 175.875 71.1875 175.875C64.2494 175.875 58.625 170.25 58.625 163.313V125.625M83.75 125.625H58.625" stroke="white" stroke-width="14" stroke-linecap="round" stroke-linejoin="round"/>
<rect x="178.989" y="55.4261" width="10.7816" height="20.023" rx="5.3908" transform="rotate(-112.769 178.989 55.4261)" fill="white"/>
<rect width="10.7816" height="20.023" rx="5.3908" transform="matrix(0.387009 -0.922076 -0.922076 -0.387009 193.279 136.588)" fill="white"/>
<rect width="10.7816" height="20.023" rx="5.3908" transform="matrix(0 -1 -1 0 195.609 92.4138)" fill="white"/>
</svg>
